<svg width="41" height="44" viewBox="0 0 41 44" fill="none" xmlns="http://www.w3.org/2000/svg">
<path d="M33 18.5V9L25.5 1H4C2.34315 1 1 2.34315 1 4V36.5C1 38.1569 2.34315 39.5 4 39.5H17.5M25.5 1V6C25.5 7.65685 26.8431 9 28.5 9H33M8.5 15.5H24.5M8.5 24.5H18M27.626 25.874L27.5187 25.9813C26.8944 26.6056 25.9709 26.8236 25.1333 26.5444C24.1625 26.2208 23.0941 26.5682 22.4993 27.4009L22.1041 27.9542C21.467 28.8462 21.5681 30.0681 22.3432 30.8432C22.7637 31.2637 23 31.8341 23 32.4288V32.9855C23 33.6422 22.7765 34.2794 22.3663 34.7922C21.558 35.8025 21.5192 37.2268 22.2712 38.2797L22.5319 38.6446C23.1211 39.4695 24.1393 39.8721 25.1333 39.6733C25.695 39.561 26.2782 39.6391 26.7906 39.8953L27.1339 40.067C27.6918 40.3459 28.128 40.8199 28.3596 41.399C28.7464 42.366 29.6956 43 30.737 43C31.794 43 32.7574 42.3565 33.1499 41.3752L33.2071 41.2322C33.3987 40.7533 33.7183 40.3363 34.1309 40.0268L34.6662 39.6254C35.1968 39.2274 35.8717 39.0743 36.522 39.2044C37.4215 39.3843 38.3429 39.0199 38.8761 38.2735L39.3959 37.5458C40.033 36.6538 39.9319 35.4319 39.1568 34.6568C38.7363 34.2363 38.5 33.6659 38.5 33.0712V32.4288C38.5 31.8341 38.7363 31.2637 39.1568 30.8432C39.9319 30.0681 40.033 28.8462 39.3959 27.9542L38.9626 27.3477C38.3975 26.5566 37.365 26.254 36.4623 26.6151C35.8554 26.8578 35.1703 26.8056 34.6072 26.4736L34.5743 26.4543C34.0805 26.1631 33.7207 25.6898 33.5724 25.1361L33.5244 24.9571C33.2151 23.8027 32.169 23 30.9738 23H30.875C29.7426 23 28.7242 23.6894 28.3037 24.7409L28.1964 25.009C28.0668 25.3329 27.8728 25.6272 27.626 25.874Z" stroke="#4E48EC" stroke-width="2" stroke-linecap="round"/>
<circle cx="31" cy="33" r="3" stroke="#4E48EC" stroke-width="2"/>
</svg>
